<svg xmlns="http://www.w3.org/2000/svg" width="24" height="24" fill="none" viewBox="0 0 24 24">
    <path fill="#F25A70" d="M11.351 23.517c6.27 0 11.352-4.968 11.352-11.095 0-6.128-5.082-11.096-11.352-11.096C5.082 1.326 0 6.294 0 12.421c0 6.128 5.082 11.096 11.351 11.096z"/>
    <path fill="#F25A70" d="M20.876 11.136c-3.103 0-4.485 3.526-4.527 3.636-.1.3-.784 2.434-.784 4.14 0 3.223-2.735 5.088-6.053 5.088-3.346 0-6.057-1.893-6.057-5.162 0 0 0-1.806.225-3.41-.534-.59-.612-1.535-.612-1.535s-.225.042-.43.21c-.026.02-.065 0-.06-.031.06-.505.583-1.575 1.618-1.73.181-.715.524-1.473.602-1.616 1.05-1.912 3.113-3.212 5.488-3.212.87 0 1.7.175 2.452.491 2.094 0 3.105-1.086 3.105-1.086.47 0 1.036 1.202.774 1.65-.007.01.008.024.018.017C17.507 8.043 18 6.703 18 6.703c.996.487 1.519 2.674.984 3.197 1.719.258 2.181 1.236 1.893 1.236z"/>
    <path fill="#3A4042" d="M12.649 22.19C18.918 22.19 24 17.223 24 11.095 24 4.967 18.918 0 12.649 0 6.379 0 1.297 4.967 1.297 11.095c0 6.128 5.082 11.095 11.352 11.095z"/>
    <path fill="#FFFCEE" d="M22.173 9.81c-3.103 0-4.484 3.526-4.527 3.636-.1.3-.783 2.434-.783 4.14 0 3.223-2.736 5.088-6.054 5.088-3.346 0-6.057-1.894-6.057-5.163 0 0 0-1.806.225-3.41-.533-.59-.611-1.535-.611-1.535s-.225.043-.43.21c-.026.021-.065.002-.061-.03.06-.505.583-1.576 1.618-1.73.181-.716.524-1.473.602-1.617 1.05-1.912 3.113-3.211 5.488-3.211.87 0 1.7.174 2.453.49 2.093 0 3.104-1.085 3.104-1.085.47 0 1.037 1.202.774 1.65-.006.01.008.023.019.016.872-.543 1.363-1.882 1.363-1.882.996.486 1.519 2.673.984 3.196 1.719.259 2.181 1.237 1.893 1.237z"/>
    <path fill="#EAE6DA" d="M10.66 22.671c-3.278-.055-5.908-1.939-5.908-5.159 0 0-.027-.462.05-1.55 3.426-.526 1.742 4.273 5.857 6.71z"/>
    <path fill="#F25A70" d="M22.253 9.724c0 .053-.028.086-.08.086-.05 0-.097 0-.146.002-2.754.09-3.975 2.698-4.182 3.194l-.004.008c-.112.227-.175.384-.192.424.093-.402.157-.789.157-1.17 0-1.253-.389-2.418-1.054-3.386-.665-.967-1.606-1.738-2.715-2.203.054 0 .107-.002.16-.003.034 0 .067-.001.1-.004.034 0 .068-.003.102-.004l.151-.012c.03-.003.06-.005.09-.01.204-.02.395-.052.573-.09.032-.009.063-.015.093-.023.033-.007.066-.015.099-.025.037-.009.074-.018.11-.03.057-.016.115-.034.17-.051.044-.015.088-.03.129-.046.042-.015.085-.03.125-.047.04-.015.08-.03.117-.048.076-.032.149-.066.217-.1.087-.042.166-.085.24-.128.122-.07.225-.138.31-.2.103-.075.181-.14.233-.186l.003-.003c.052-.043.128-.042.18.001.26.22.93.872.679 1.564l-.004.008c-.003.007 0 .012.004.015.004.004.011.006.017.002l.076-.05c.058-.04.116-.084.17-.13l.06-.056c.034-.03.067-.061.098-.094l.044-.045.008-.008.027-.028.027-.03.005-.007c.015-.016.03-.032.042-.048.008-.01.016-.017.023-.027.025-.03.05-.06.073-.09l.04-.052c.004-.004.006-.008.008-.012 0 0 .003-.001.003-.003.013-.017.027-.034.038-.052.015-.02.03-.04.042-.06.007-.007.011-.015.015-.022.006-.006.01-.013.014-.02l.03-.044c.02-.03.042-.063.06-.094l.003-.004c.021-.03.039-.062.057-.092l.01-.017c.027-.044.051-.088.075-.131l.026-.046.046-.088.036-.067c0-.001 0-.003.002-.004 0-.005.004-.01.006-.015.015-.028.03-.056.041-.083.01-.02.02-.04.028-.06.006-.01.01-.02.014-.029l.008-.016c.01-.023.02-.043.027-.063l.01-.019c.048-.075.156-.085.218-.016.204.23.578.68.844 1.19.007.016.01.032.018.048.236.708.264 1.463 0 1.77l-.026.028c.107.016.21.035.307.056l.12.029.061.016c.038.009.075.02.111.03.46.136.792.325 1.014.509.02.016.037.032.055.048l.007.005.05.049c.017.016.033.032.048.05.016.015.03.031.043.047.023.027.044.054.062.08.053.079.083.148.092.202l.002.03z"/>
    <path fill="#828282" d="M5.749 10.998c-1.205 0-1.81 1.203-1.875 1.748-.004.032.035.052.06.031.207-.167.432-.211.432-.211s.166 2 1.66 2c1.824 0 1.658-3.568-.277-3.568z"/>
    <path fill="#F4F1E4" d="M11.914 20.093c.9.153 2.6.284 3.07-.176.304-.297-.694-1.623-1.631-2.512-.235-.234-.663-.407-1.079-.407-.886 0-1.603.702-1.603 1.568 0 .773.49 1.398 1.243 1.527z"/>
    <path fill="#3A4042" d="M21.103 8.212c.208-.813-.217-1.87-1.244-3.027-.13-.146-.319-.23-.517-.23-.274 0-.522.159-.63.405-.06.135-.202.44-.408.748-.209-.385-.517-.682-.707-.843-.125-.106-.285-.164-.45-.164-.17 0-.334.062-.46.175-.223.198-1.054.836-2.544.865-.812-.325-1.673-.49-2.56-.49-2.5 0-4.788 1.34-5.97 3.495-.076.138-.362.76-.564 1.426-1.039.344-1.635 1.413-1.72 2.11-.019.162.033.325.144.447.111.122.271.192.439.192.016 0 .032 0 .048-.002.086.292.225.631.444.936-.198 1.557-.2 3.185-.2 3.256 0 1.723.682 3.183 1.973 4.222 1.184.952 2.83 1.477 4.632 1.477 3.888 0 6.603-2.313 6.603-5.625 0-1.618.657-3.671.752-3.96.097-.246 1.352-3.28 4.01-3.28.33 0 .6-.244.625-.57.043-.538-.583-1.214-1.696-1.563zm-6.151 12.97c-1.053.832-2.524 1.29-4.143 1.29-4.041 0-5.85-2.491-5.85-4.96 0-.017.002-1.543.176-3.013.241.164.534.268.89.268.47 0 .861-.203 1.13-.587.228-.324.353-.765.353-1.241 0-1.033-.61-2.129-1.74-2.14.182-.609.445-1.186.51-1.305C7.327 7.58 9.361 6.39 11.582 6.39c.825 0 1.623.16 2.372.475 1.066.447 1.974 1.184 2.625 2.13.666.97 1.019 2.102 1.019 3.275 0 .626-.178 1.266-.385 2.007-.26.937-.556 1.999-.556 3.31 0 1.47-.59 2.713-1.706 3.596zm-8.375-8.247c-1.109-.948-2.115-.622-2.273-.562-.026.006-.07.018-.125.038.2-.503.698-1.212 1.57-1.212.884 0 1.347.875 1.347 1.74 0 .396-.1.755-.28 1.013-.192.274-.458.412-.79.412-.529 0-.932-.293-1.198-.872-.139-.3-.205-.605-.235-.784.286-.064.96-.115 1.713.53.04.033.088.05.136.05.057 0 .114-.024.155-.07.074-.083.066-.21-.02-.283zm10.48-7.263c.025-.023.058-.034.09-.034.033 0 .065.01.09.033.23.194.778.723.733 1.32-.23.176-.489.293-.774.293-.114 0-.206.09-.206.2 0 .112.092.202.206.202 1.187 0 1.943-1.43 2.199-2.008.432.347.75 1.086.854 1.714.07.422.045.786-.062.97-.235-.032-.492-.051-.779-.051-.114 0-.206.09-.206.201 0 .111.092.201.206.201 1.59 0 2.215.575 2.442.906-2.062.145-3.274 1.66-3.84 2.618-.007-1.241-.382-2.44-1.088-3.467-.621-.902-1.462-1.625-2.445-2.11 1.472-.112 2.323-.76 2.58-.988z"/>
    <path fill="#3A4042" d="M9.65 14.285c.564 0 1.02-.446 1.02-.997 0-.55-.456-.997-1.02-.997-.563 0-1.02.446-1.02.997 0 .55.457.997 1.02.997zM13.55 20.439c-.768 0-1.528-.123-1.672-.148-.845-.145-1.413-.838-1.413-1.725 0-.976.812-1.769 1.81-1.769.46 0 .94.184 1.225.468.67.635 1.74 1.877 1.745 2.491.002.156-.062.251-.115.303-.302.295-.944.38-1.58.38zm-1.6-.544c1.157.197 2.555.206 2.889-.12.069-.192-.594-1.243-1.63-2.225-.208-.208-.59-.35-.935-.35-.77 0-1.398.612-1.398 1.366 0 .685.431 1.219 1.073 1.329z"/>
</svg>
